<svg xmlns="http://www.w3.org/2000/svg" width="512" height="512" viewBox="0 0 512 512" style="overflow: visible;"
     data-bbox="-5.4650595684660175 0.6102803151294438 508.0490349564067 509.4648261279711">
    <g transform="matrix(3.102529701402331, -2.583733217521289, 1.4483279733699164, 1.739142630412795, -765.3688941112575, 239.93767106080603)">
        <path class="st1" d="M203.1 267.4c-0.5-1.4-0.6-4.9 1.5-8.4l53-88.9c0.7-1.1 1.3-1.8 1.7-2.2c0.2 0.7 0.3 2-0.1 3.9l-14.6 73.6
			l13.4-5.4l13-65.9c1.9-9.8-2.3-16.1-7.4-18c-4.5-1.7-11.5-0.7-16.5 7.8l-53 88.9c-4.1 6.8-4.6 15.2-1.4 20.9
			c2.1 3.7 5.6 5.8 9.6 5.8h26l2.8-12.1H203.1z"
              fill="#75EAF0"
              transform="matrix(1, 0, 0, 1, -61, 40)">

        </path>
        <path class="st2" d="M307.2 226.3c-2.1-3.7-5.6-5.8-9.6-5.8h-25.4l-2.6 11.7l27.3 0.4c0.5 1.4 0.6 4.9-1.5 8.4l-53 88.9
			c-0.7 1.1-1.3 1.8-1.7 2.2c-0.2-0.7-0.3-2 0.1-3.9l14.7-74.2l-13.4 5.4l-13.1 66.4c-1.9 9.8 2.3 16.1 7.4 18
			c1.1 0.4 2.5 0.7 3.9 0.7c4.1 0 8.9-2.2 12.6-8.5l53-88.9C309.9 240.3 310.4 231.9 307.2 226.3z"
              fill="#782B90"
              transform="matrix(1, 0, 0, 1, -61, 40)">
        </path>
    </g>
</svg>